<?xml version="1.0" encoding="utf-8"?>
<svg version="1.1"
	 id="svg2" xmlns:cc="http://creativecommons.org/ns#" xmlns:dc="http://purl.org/dc/elements/1.1/" xmlns:rdf="http://www.w3.org/1999/02/22-rdf-syntax-ns#" xmlns:svg="http://www.w3.org/2000/svg"
	 xmlns="http://www.w3.org/2000/svg" xmlns:xlink="http://www.w3.org/1999/xlink" x="0px" y="0px" viewBox="0 0 66.6 20.7"
	 style="enable-background:new 0 0 66.6 20.7;" xml:space="preserve">
<style type="text/css">
	.st0{fill:#19552B;}
	.st1{fill:#FFFFFF;}
	.st2{fill:#0E0D11;}
	.st3{fill:#FFF200;}
</style>
<g id="g10" transform="matrix(1.25,0,0,-1.25,0,22.5)">
	<g id="g12" transform="scale(0.1,0.1)">
		<path id="path14" class="st0" d="M39.6,180h473c6.3,0,10.3-5.1,9.1-11.2L496,40c-1.2-6.2-7.4-11.2-13.6-11.2H9.3
			C3.1,28.7-1,33.8,0.2,40L26,168.8C27.2,174.9,33.3,180,39.6,180"/>
		<path id="path16" class="st1" d="M174.8,166.1l-15.1-73.6H112l8.3,40.1H89l-18.6-90H22.7L48,166.1H174.8z M155.6,72.5l-6.1-29.9
			h-9.2l6.1,29.9H155.6z M110.8,42.6h-9.1l6.2,29.9h9.1l-6-29.3C110.9,43.3,110.8,42.6,110.8,42.6z M153.5,79.2l1.4,6.7H114
			l-1.4-6.7h12.5l-0.8-4l-6-29.3h15.8l6.3,30.6l0.6,2.7H153.5"/>
		<path id="path18" class="st2" d="M526.7,165.1c4.3-1.4,6.9-5.7,5.9-10.7L506.8,25.6c-1.2-6.2-7.4-11.2-13.6-11.2h-473
			c-5.6,0-9.4,4-9.3,9.3c1-0.3,2.1-0.5,3.3-0.5h473c6.2,0,12.4,5.1,13.6,11.2l25.8,128.8C526.6,163.8,526.7,164.5,526.7,165.1"/>
		<path id="path20" class="st1" d="M217.5,125l-7.4-36h-16l3.5,16.8h-0.3L185.8,89h-17.3l7.4,36h16l-3.5-16.8h0.3l11.6,16.8H217.5"
			/>
		<path id="path22" class="st1" d="M283.5,125l-5.3-25.7h4.9l-4.2-20.3h-15.5l2.1,10h-48.5l7.4,36h16l-5.3-25.7h5.6L246,125h16
			l-5.3-25.7h5.6l5.3,25.7H283.5"/>
		<path id="path24" class="st1" d="M329.4,111.8c0-2-0.3-4.3-0.9-6.8l-0.5-2.1h-24.3c0-0.3-0.1-0.6-0.1-0.8c0-1.3,0.4-2.4,1.3-3.2
			c1.2-1.1,3.2-1.7,6.1-1.7c2,0,4.3,0.2,6.8,0.7c2.6,0.5,4.9,1.1,6.9,1.7l-1.9-9.3c-2.6-0.7-5.4-1.2-8.3-1.5
			c-2.9-0.3-5.6-0.5-8.1-0.5c-2.8,0-5.2,0.2-7.2,0.6c-3,0.6-5.5,1.8-7.5,3.4c-1.4,1.1-2.6,2.5-3.3,4.1c-1,1.9-1.5,4-1.5,6.5
			c0,5.4,1.8,10.3,5.4,14.7c4.6,5.6,11.1,8.5,19.5,8.5c5.3,0,9.5-1.1,12.6-3.4c2-1.6,3.5-3.5,4.3-5.7
			C329.2,115.3,329.4,113.6,329.4,111.8z M314.6,113.1c0,1.6-0.4,2.6-1.1,3.3c-0.7,0.6-1.5,0.9-2.5,0.9c-1.1,0-2-0.3-2.8-0.9
			c-1.4-1.1-2.4-2.9-2.9-5.5l-0.1-0.7h9l0.1,0.8L314.6,113.1"/>
		<path id="path26" class="st1" d="M374.3,117.9c0-2.1-0.7-4.1-2-5.8c-1.5-2-3.8-3.3-6.8-4.1c2.1-0.3,3.8-1.1,5.1-2.4
			c1.3-1.3,1.9-2.9,1.9-4.9c0-3-1.3-5.7-3.8-7.9c-2.9-2.6-6.8-3.8-11.6-3.8h-26.9l7.4,36H364c3.4,0,6-0.6,7.7-1.8
			C373.4,122.1,374.3,120.3,374.3,117.9z M358.3,114.8c0,0.8-0.3,1.5-1,1.9c-0.6,0.4-1.7,0.7-3.1,0.7h-2.2l-1.3-6.3h2.2
			c2.1,0,3.6,0.5,4.5,1.4C358,113.2,358.3,113.9,358.3,114.8z M356.2,100.9c0,1.3-0.4,2.1-1.3,2.4c-0.9,0.3-1.9,0.5-3.1,0.5h-2.5
			l-1.5-7.1h2.5c2.1,0,3.7,0.5,4.7,1.4C355.8,98.8,356.2,99.8,356.2,100.9"/>
		<path id="path28" class="st1" d="M446.1,125l-7.4-36h-17.5l7.4,36H446.1z M420.4,103.5c0-3.5-1.2-6.5-3.7-9.1
			c-3.3-3.6-8.4-5.4-15.1-5.4h-25.1l7.4,36h17.5l-2.4-11.5c0.8,0,2.1,0.1,3.8,0.2c1.8,0.1,2.8,0.2,3.3,0.2c5.6,0,9.5-1.3,11.9-4
			C419.6,108.2,420.4,106.1,420.4,103.5z M402.8,102.4c0,1.4-0.5,2.3-1.6,2.8c-0.6,0.3-1.5,0.5-2.6,0.5h-1.5l-1.7-8.1h1.5
			c1.9,0,3.3,0.5,4.3,1.4C402.2,99.9,402.8,101,402.8,102.4"/>
		<path id="path30" class="st1" d="M489.6,111.8c0-2-0.3-4.3-0.9-6.8l-0.5-2.1h-24.3c0-0.3-0.1-0.6-0.1-0.8c0-1.3,0.4-2.4,1.3-3.2
			c1.2-1.1,3.2-1.7,6.1-1.7c2,0,4.3,0.2,6.8,0.7c2.6,0.5,4.9,1.1,6.9,1.7l-1.9-9.3c-2.6-0.7-5.4-1.2-8.3-1.5
			c-2.9-0.3-5.6-0.5-8.1-0.5c-2.8,0-5.2,0.2-7.2,0.6c-3,0.6-5.5,1.8-7.5,3.4c-1.4,1.1-2.5,2.5-3.3,4.1c-1,1.9-1.5,4-1.5,6.5
			c0,5.4,1.8,10.3,5.4,14.7c4.6,5.6,11.1,8.5,19.5,8.5c5.3,0,9.5-1.1,12.6-3.4c2-1.6,3.5-3.5,4.3-5.7
			C489.3,115.3,489.6,113.6,489.6,111.8z M474.8,113.1c0,1.6-0.4,2.6-1.1,3.3c-0.7,0.6-1.5,0.9-2.5,0.9c-1.1,0-2-0.3-2.8-0.9
			c-1.4-1.1-2.4-2.9-2.9-5.5l-0.1-0.7h9l0.1,0.8L474.8,113.1"/>
		<path id="path32" class="st3" d="M478.5,70l-5.6-27.3h-12.1l2.6,12.8h-0.3l-8.7-12.8h-13.1L447,70h12.1l-2.6-12.8h0.3l8.8,12.8
			C465.5,70,478.5,70,478.5,70z M441.7,70l-5.6-27.3H424l2.6,12.8h-0.3l-8.7-12.8h-13.1l5.6,27.3h12.1l-2.6-12.8h0.3l8.8,12.8
			C428.7,70,441.7,70,441.7,70z M406.1,70l-1.6-7.8h-9.7l-4-19.5h-13.3l5.6,27.3C383.2,70,406.1,70,406.1,70z M362.8,60.2
			c0,0.9-0.2,1.6-0.5,2c-0.4,0.4-0.9,0.6-1.5,0.6c-0.8,0-1.4-0.3-2-0.8c-0.3-0.3-0.6-0.7-0.9-1.4c-0.4-0.9-0.8-2.2-1.2-3.9
			c-0.4-1.7-0.6-3.2-0.6-4.3c0-0.9,0.2-1.6,0.6-2c0.4-0.4,0.8-0.6,1.4-0.6c0.7,0,1.3,0.2,1.9,0.7c0.6,0.4,1.1,1.2,1.4,2.3
			c0.4,1.1,0.7,2.3,1,3.7C362.6,57.9,362.8,59.2,362.8,60.2z M376.9,59c0-4.6-1.8-8.5-5.3-11.8c-3.8-3.4-8.7-5.2-14.9-5.2
			c-5.8,0-9.9,1.4-12.4,4.2c-1.6,1.9-2.5,4.2-2.5,7c0,4.7,1.7,8.6,5.1,11.9c3.8,3.6,8.9,5.5,15.3,5.5c5.1,0,8.9-1.2,11.4-3.6
			C375.8,64.9,376.9,62.2,376.9,59z M341.2,70l-5.6-27.3h-13.3l4,19.5h-4.5l-0.9-4.6c-0.7-3.5-1.2-5.8-1.6-7
			c-0.7-2.2-1.6-3.9-2.8-5.2c-1.2-1.3-2.6-2.2-4.2-2.7c-1.2-0.4-2.6-0.6-4.2-0.6c-1.3,0-2.5,0.1-3.6,0.2c-1.1,0.1-2.2,0.4-3.4,0.8
			l1.7,7c0.6-0.2,1.3-0.4,2.1-0.4c1.1,0,1.9,0.6,2.5,1.8c0.6,1.2,1.3,3.6,2.1,7.1l2.4,11.4C311.7,70,341.2,70,341.2,70z M288.6,60.2
			c0,0.9-0.2,1.6-0.5,2c-0.4,0.4-0.9,0.6-1.5,0.6c-0.8,0-1.4-0.3-2-0.8c-0.3-0.3-0.6-0.7-0.9-1.4c-0.4-0.9-0.8-2.2-1.2-3.9
			c-0.4-1.7-0.6-3.2-0.6-4.3c0-0.9,0.2-1.6,0.6-2c0.4-0.4,0.8-0.6,1.4-0.6c0.7,0,1.3,0.2,1.9,0.7c0.6,0.4,1.1,1.2,1.4,2.3
			c0.4,1.1,0.7,2.3,1,3.7C288.4,57.9,288.6,59.2,288.6,60.2z M302.7,59c0-4.6-1.8-8.5-5.3-11.8c-3.8-3.4-8.7-5.2-14.9-5.2
			c-5.8,0-9.9,1.4-12.4,4.2c-1.6,1.9-2.5,4.2-2.5,7c0,4.7,1.7,8.6,5.1,11.9c3.8,3.6,8.9,5.5,15.3,5.5c5.1,0,8.9-1.2,11.4-3.6
			C301.6,64.9,302.7,62.2,302.7,59z M267,70l-5.6-27.3h-13.3l2.1,10.1h-4.7l-2.1-10.1h-13.3l5.6,27.3H249l-1.9-9.4h4.7l1.9,9.4
			C253.7,70,267,70,267,70z M232.3,70L222,57.6l6.1-14.9h-14.2l-2.4,9.2h-0.2l-6.2-9.2h-13.6l12.1,14.7L197.7,70h14.1l1.8-8.5h0.2
			l5.3,8.5C219.2,70,232.3,70,232.3,70z M182.9,60.9c0,1.2-0.3,2-0.8,2.5c-0.5,0.5-1.2,0.7-1.9,0.7c-0.8,0-1.5-0.2-2.1-0.7
			c-1.1-0.8-1.8-2.2-2.2-4.2l-0.1-0.5h6.8l0.1,0.6C182.7,59.3,182.9,60.9,182.9,60.9z M194.1,59.9c0-1.5-0.2-3.3-0.7-5.2l-0.4-1.6
			h-18.4c0-0.2-0.1-0.4-0.1-0.6c0-1,0.3-1.8,0.9-2.4c0.9-0.9,2.5-1.3,4.6-1.3c1.5,0,3.2,0.2,5.2,0.5c1.9,0.4,3.7,0.8,5.2,1.3
			l-1.5-7.1c-2-0.5-4.1-0.9-6.3-1.2c-2.2-0.3-4.3-0.4-6.2-0.4c-2.1,0-4,0.2-5.5,0.5c-2.3,0.5-4.2,1.3-5.7,2.6
			c-1.1,0.9-1.9,1.9-2.5,3.1c-0.7,1.4-1.1,3.1-1.1,4.9c0,4.1,1.4,7.8,4.1,11.2c3.5,4.3,8.4,6.4,14.8,6.4c4,0,7.2-0.9,9.5-2.6
			c1.5-1.2,2.6-2.6,3.3-4.3C193.9,62.5,194.1,61.3,194.1,59.9"/>
		<path id="path34" class="st3" d="M159,89.2l-2.8-13.3h-12.6l-6.8-33.3h-22.6l6.8,33.3h-12.5l2.8,13.3H159"/>
		<path id="path36" class="st3" d="M188.4,166.1h306.7c2.7,0,4.5-2.2,4-4.8l-3.7-21c-0.5-2.7-3-4.8-5.7-4.8H183
			c-2.7,0-4.5,2.2-4,4.8l3.7,21C183.2,164,185.8,166.1,188.4,166.1"/>
		<path id="path38" class="st0" d="M204.3,156.5h-7.1l-2.7-13.7H191l3.3,16.8h10.7L204.3,156.5"/>
		<path id="path40" class="st0" d="M209.6,152.5h-3c-0.3-1.3-0.7-2.6-1-3.8c-0.4-1.2-0.8-2.2-1.3-3.1c-0.5-0.9-1.1-1.6-1.8-2.1
			c-0.7-0.5-1.4-0.8-2.3-0.8c-1,0-1.7,0.1-2.1,0.3l1.1,3c0.3-0.1,0.5-0.1,0.7-0.1c0.4,0,0.7,0.1,1.1,0.4c0.3,0.3,0.7,0.8,1,1.5
			c0.3,0.7,0.7,1.7,1,2.9c0.4,1.2,0.8,2.8,1.2,4.7h9.3l-2.4-12.6h-3.4L209.6,152.5"/>
		<path id="path42" class="st0" d="M216.8,154.6c0.8,0.3,1.7,0.6,2.8,0.8c1.1,0.2,2.2,0.3,3.3,0.3c0.9,0,1.6-0.1,2.2-0.3
			c0.6-0.2,1-0.5,1.3-0.9c0.3-0.4,0.4-0.9,0.5-1.4c0-0.6,0-1.2-0.1-1.8c-0.2-0.8-0.3-1.6-0.6-2.4c-0.2-0.8-0.4-1.6-0.6-2.5
			c-0.1-0.6-0.2-1.2-0.2-1.8c0-0.6,0-1.1,0.1-1.7h-2.8l-0.2,1.9h-0.3c-0.5-0.6-1.2-1-1.9-1.4c-0.7-0.4-1.6-0.6-2.6-0.6
			c-0.6,0-1.2,0.1-1.6,0.3c-0.5,0.2-0.9,0.4-1.2,0.8c-0.3,0.3-0.5,0.7-0.6,1.2c-0.1,0.4-0.1,0.9,0,1.5c0.3,1.4,1,2.5,2.1,3.2
			c1.1,0.7,2.6,1.1,4.6,1.1c0.5,0,0.9,0,1.3-0.1c0.4-0.1,0.7-0.1,0.9-0.2c0.1,0.3,0.2,0.6,0.2,0.9c0.1,0.6,0.1,1.1-0.2,1.3
			c-0.3,0.3-0.8,0.4-1.6,0.4c-0.8,0-1.5-0.1-2.3-0.3c-0.8-0.2-1.5-0.4-2.1-0.7C217.2,152,216.8,154.6,216.8,154.6z M219.4,145.4
			c0.8,0,1.4,0.2,1.9,0.5c0.5,0.4,0.9,0.7,1.2,1.1l0.3,1.4c-0.1,0-0.2,0.1-0.4,0.1c-0.2,0-0.3,0.1-0.5,0.1c-0.2,0-0.4,0.1-0.6,0.1
			c-0.2,0-0.4,0-0.5,0c-0.9,0-1.5-0.2-2-0.5c-0.5-0.3-0.8-0.7-0.9-1.2c-0.1-0.6,0-1,0.2-1.3C218.4,145.5,218.9,145.4,219.4,145.4"/>
		<path id="path44" class="st0" d="M231.1,155.4c0.7,0.1,1.5,0.1,2.4,0.1c0.9,0,1.9,0.1,2.9,0.1c2,0,3.4-0.3,4.1-0.8
			c0.7-0.5,1-1.3,0.8-2.3c-0.1-0.6-0.4-1.2-0.9-1.7c-0.5-0.5-1.1-0.9-2-1.2l0-0.2c1-0.2,1.6-0.6,2-1.1c0.4-0.5,0.5-1.2,0.3-2
			c-0.2-1.2-1-2.2-2.1-2.8c-1.2-0.6-2.9-0.9-5.3-0.9c-0.8,0-1.6,0-2.4,0.1c-0.8,0-1.6,0.1-2.2,0.2
			C228.7,142.9,231.1,155.4,231.1,155.4z M232.5,145.4c0.3-0.1,0.6-0.1,0.8-0.1c0.2,0,0.5,0,0.8,0c1.1,0,1.9,0.1,2.4,0.4
			c0.5,0.3,0.8,0.6,0.9,1.1c0.1,0.4,0,0.8-0.3,1.1c-0.3,0.3-1,0.4-2,0.4h-2C233,148.3,232.5,145.4,232.5,145.4z M235.5,150.3
			c0.6,0,1.2,0.1,1.6,0.4c0.4,0.2,0.7,0.6,0.8,1c0.1,0.4,0,0.8-0.3,1c-0.3,0.2-0.9,0.4-1.8,0.4c-0.3,0-0.6,0-0.8,0
			c-0.2,0-0.4,0-0.6,0c-0.1,0-0.1,0-0.2,0c-0.1,0-0.2,0-0.2,0l-0.5-2.6L235.5,150.3"/>
		<path id="path46" class="st0" d="M251.8,147.7H247l-0.9-4.9h-3.4l2.4,12.6h3.4l-0.9-4.7h4.8l0.9,4.7h3.4l-2.4-12.6h-3.4
			L251.8,147.7"/>
		<path id="path48" class="st0" d="M261.6,145.7c0.3-0.1,0.6-0.1,0.9-0.1s0.6,0,0.8,0c0.9,0,1.5,0.1,1.9,0.4
			c0.4,0.3,0.7,0.7,0.8,1.3c0.1,0.5,0,0.9-0.3,1.2c-0.3,0.3-0.9,0.4-1.7,0.4c-0.7,0-1.3-0.1-1.9-0.2L261.6,145.7z M262.7,150.9
			c0.5,0.1,1,0.1,1.5,0.2c0.5,0,0.9,0.1,1.3,0.1c0.9,0,1.7-0.1,2.3-0.3c0.6-0.2,1-0.5,1.4-0.8c0.3-0.4,0.5-0.8,0.6-1.2
			c0.1-0.5,0.1-1,0-1.5c-0.1-0.8-0.4-1.4-0.7-2c-0.3-0.6-0.8-1-1.3-1.4c-0.6-0.4-1.3-0.7-2.1-0.9c-0.8-0.2-1.8-0.3-2.9-0.3
			c-1.1,0-2,0-2.7,0c-0.8,0-1.5,0.1-2.1,0.1l2.5,12.6h3.4C263.5,155.4,262.7,150.9,262.7,150.9z M273,155.4h3.4l-2.4-12.6h-3.4
			L273,155.4"/>
		<path id="path50" class="st0" d="M287,148.5l0.6,2.1l-1.9-2.1l-6.1-5.7h-2l2.4,12.6h3.4l-1.2-5.9l-0.5-1.7h0.3
			c0.3,0.3,0.5,0.6,0.8,0.9c0.3,0.3,0.5,0.6,0.8,0.9l6.2,5.9h2l-2.4-12.6h-3.4C285.9,142.9,287,148.5,287,148.5z M285.3,160.6
			c0-0.7,0.1-1.1,0.4-1.4c0.3-0.2,0.7-0.4,1.2-0.4c0.5,0,1,0.1,1.3,0.4c0.4,0.2,0.7,0.7,0.9,1.3l2.4-0.7c-0.4-1.1-1.1-1.8-2-2.4
			c-0.9-0.5-2-0.8-3.2-0.8c-0.6,0-1.1,0.1-1.6,0.2c-0.5,0.1-0.9,0.3-1.3,0.6s-0.7,0.6-0.9,1c-0.2,0.4-0.3,0.9-0.3,1.5L285.3,160.6"
			/>
		<path id="path52" class="st0" d="M301.9,155.4h2.4l0.1-1.6h0.3c0.6,0.6,1.3,1.1,2,1.4c0.7,0.3,1.5,0.5,2.4,0.5
			c1.7,0,2.9-0.5,3.6-1.5c0.7-1,0.8-2.6,0.3-4.8c-0.2-1.1-0.5-2-1-2.9c-0.4-0.9-1-1.6-1.6-2.2c-0.7-0.6-1.4-1.1-2.3-1.4
			c-0.8-0.3-1.8-0.5-2.8-0.5c-0.5,0-1,0.1-1.4,0.2c-0.4,0.1-0.8,0.2-1.1,0.4l-1-5h-3.4C298.5,138.1,301.9,155.4,301.9,155.4z
			 M307.6,153c-0.8,0-1.4-0.2-1.9-0.5c-0.5-0.3-0.9-0.9-1.3-1.6l-0.9-4.9c0.2-0.2,0.5-0.4,0.8-0.5c0.3-0.1,0.7-0.2,1.2-0.2
			c1.1,0,2,0.3,2.6,1c0.7,0.7,1.1,1.8,1.4,3.2c0.2,1.1,0.2,1.9-0.1,2.5C309.2,152.7,308.5,153,307.6,153"/>
		<path id="path54" class="st0" d="M325.6,144c-0.6-0.4-1.4-0.8-2.5-1.1c-1-0.3-2-0.4-3.1-0.4c-2.2,0-3.7,0.6-4.4,1.8
			c-0.8,1.2-1,2.8-0.6,4.9c0.4,2.2,1.3,3.8,2.7,5c1.4,1.1,3.1,1.7,5.2,1.7c0.7,0,1.3-0.1,2-0.3c0.6-0.2,1.2-0.4,1.6-0.8
			c0.4-0.4,0.8-0.9,0.9-1.6c0.2-0.7,0.2-1.5,0-2.5c-0.1-0.3-0.2-0.7-0.3-1.1c-0.1-0.4-0.3-0.8-0.4-1.3h-8.5c-0.1-1.1,0-1.9,0.5-2.4
			c0.5-0.5,1.3-0.8,2.6-0.8c0.8,0,1.5,0.1,2.1,0.3c0.6,0.2,1.2,0.4,1.5,0.7L325.6,144z M322.3,153.2c-1,0-1.8-0.3-2.4-0.8
			c-0.6-0.5-1-1.2-1.2-2h5.5c0.2,0.9,0.2,1.6-0.1,2.1C323.8,152.9,323.2,153.2,322.3,153.2"/>
		<path id="path56" class="st0" d="M341.7,140h-2.4l0.1,2.9h-10.6l2.4,12.6h3.4l-1.9-9.6h4.6l1.9,9.6h3.4l-1.9-9.6h2L341.7,140"/>
		<path id="path58" class="st0" d="M355.6,144c-0.6-0.4-1.4-0.8-2.5-1.1c-1-0.3-2-0.4-3.1-0.4c-2.2,0-3.7,0.6-4.4,1.8
			c-0.8,1.2-1,2.8-0.6,4.9c0.4,2.2,1.3,3.8,2.7,5c1.4,1.1,3.1,1.7,5.2,1.7c0.7,0,1.3-0.1,2-0.3c0.6-0.2,1.2-0.4,1.6-0.8
			c0.4-0.4,0.8-0.9,0.9-1.6c0.2-0.7,0.2-1.5,0-2.5c-0.1-0.3-0.2-0.7-0.3-1.1c-0.1-0.4-0.3-0.8-0.4-1.3h-8.5c-0.1-1.1,0-1.9,0.5-2.4
			c0.5-0.5,1.3-0.8,2.6-0.8c0.8,0,1.5,0.1,2.1,0.3c0.6,0.2,1.2,0.4,1.5,0.7C354.9,146.1,355.6,144,355.6,144z M352.3,153.2
			c-1,0-1.8-0.3-2.4-0.8c-0.6-0.5-1-1.2-1.3-2h5.5c0.2,0.9,0.2,1.6-0.1,2.1C353.8,152.9,353.2,153.2,352.3,153.2"/>
		<path id="path60" class="st0" d="M368.8,152.5h-4.7l-1.9-9.6h-3.4l2.4,12.6h11.5l-2.4-12.6H367L368.8,152.5"/>
		<path id="path62" class="st0" d="M385.6,152.5h-3.9l-1.9-9.6h-3.5l1.9,9.6h-3.9l0.6,3h11.4L385.6,152.5"/>
		<path id="path64" class="st0" d="M395.6,152.8c0.7,0.7,1.4,1.2,2.2,1.6c0.8,0.3,1.7,0.5,2.7,0.5c1.7,0,2.9-0.4,3.7-1.3
			c0.8-0.9,1-2.3,0.6-4.2c-0.4-2.2-1.3-3.9-2.6-5.1c-1.3-1.2-3-1.7-5-1.7c-2.1,0-3.6,0.6-4.5,1.9c-0.9,1.3-1,3.3-0.5,6
			c0.3,1.4,0.6,2.7,1,3.7c0.4,1,0.8,1.8,1.3,2.5c0.5,0.7,1,1.2,1.5,1.6c0.5,0.4,1.1,0.7,1.7,0.9s1.3,0.3,1.9,0.4
			c0.7,0.1,1.4,0.1,2.1,0.2c0.9,0.1,1.7,0.2,2.4,0.3c0.7,0.1,1.2,0.3,1.6,0.5l-0.4-2.9c-0.4-0.3-1-0.4-1.7-0.5
			c-0.7-0.1-1.6-0.2-2.8-0.3c-0.7,0-1.4-0.1-1.9-0.2c-0.6-0.1-1.1-0.2-1.5-0.5c-0.5-0.2-0.9-0.6-1.2-1.1c-0.3-0.5-0.7-1.2-1-2.2h0.2
			C395.5,152.8,395.6,152.8,395.6,152.8z M395.4,148.9c-0.1-0.5-0.1-1-0.1-1.4c0-0.4,0.1-0.8,0.3-1.1c0.2-0.3,0.4-0.6,0.8-0.8
			c0.3-0.2,0.8-0.3,1.3-0.3c1.1,0,1.9,0.3,2.5,0.9c0.6,0.6,1,1.5,1.2,2.6c0.2,1.1,0.1,1.9-0.2,2.4c-0.3,0.5-1,0.8-2,0.8
			c-1.1,0-1.9-0.3-2.5-0.8C396,150.7,395.6,149.9,395.4,148.9"/>
		<path id="path66" class="st0" d="M415.9,148.5l0.6,2.1l-1.9-2.1l-6.1-5.7h-2l2.4,12.6h3.4l-1.2-5.9l-0.5-1.7h0.3
			c0.2,0.3,0.5,0.6,0.8,0.9c0.3,0.3,0.5,0.6,0.8,0.9l6.2,5.9h2l-2.4-12.6h-3.4L415.9,148.5"/>
		<path id="path68" class="st0" d="M424,148.1l0.4,2.3h1.6c0.7,0,1.3,0.1,1.8,0.3c0.5,0.2,0.7,0.5,0.8,0.9c0.1,0.5,0,0.8-0.4,1
			c-0.3,0.2-0.9,0.3-1.7,0.3c-0.7,0-1.3-0.1-1.9-0.3c-0.6-0.2-1.1-0.3-1.5-0.5c-0.1,0.4-0.1,0.8-0.1,1.2c0,0.4,0,0.8-0.1,1.2
			c0.6,0.3,1.4,0.6,2.3,0.8c0.9,0.2,1.9,0.3,2.9,0.3c1.6,0,2.7-0.3,3.3-0.8c0.7-0.5,0.9-1.3,0.7-2.3c-0.1-0.3-0.2-0.6-0.3-0.9
			c-0.1-0.3-0.3-0.6-0.6-0.8c-0.2-0.3-0.5-0.5-0.8-0.7s-0.7-0.4-1.1-0.5l0-0.2c1-0.2,1.6-0.6,1.9-1.1c0.3-0.5,0.4-1.2,0.2-2
			c-0.1-0.5-0.3-1-0.6-1.5c-0.3-0.5-0.8-0.9-1.3-1.2c-0.6-0.4-1.2-0.6-2-0.8c-0.8-0.2-1.7-0.3-2.7-0.3c-1,0-1.8,0.1-2.5,0.3
			s-1.3,0.4-1.7,0.7c0.2,0.4,0.4,0.9,0.6,1.3c0.2,0.4,0.4,0.9,0.6,1.3c0.4-0.2,0.9-0.4,1.5-0.6c0.6-0.2,1.3-0.2,2-0.2
			c1.7,0,2.7,0.5,2.9,1.5c0,0.2,0,0.4,0,0.6c-0.1,0.2-0.2,0.3-0.4,0.4c-0.2,0.1-0.5,0.2-0.9,0.2c-0.4,0-0.9,0.1-1.5,0.1L424,148.1"
			/>
		<path id="path70" class="st0" d="M442.6,147.7h-4.8l-0.9-4.9h-3.4l2.4,12.6h3.4l-0.9-4.7h4.8l0.9,4.7h3.4l-2.4-12.6h-3.4
			L442.6,147.7"/>
		<path id="path72" class="st0" d="M459.6,144c-0.6-0.4-1.4-0.8-2.4-1.1c-1-0.3-2-0.4-3.1-0.4c-2.2,0-3.7,0.6-4.4,1.8
			c-0.8,1.2-1,2.8-0.6,4.9c0.4,2.2,1.3,3.8,2.7,5c1.4,1.1,3.1,1.7,5.2,1.7c0.7,0,1.3-0.1,2-0.3s1.2-0.4,1.6-0.8
			c0.4-0.4,0.8-0.9,0.9-1.6c0.2-0.7,0.2-1.5,0-2.5c-0.1-0.3-0.2-0.7-0.3-1.1c-0.1-0.4-0.3-0.8-0.5-1.3h-8.5c-0.1-1.1,0-1.9,0.5-2.4
			c0.5-0.5,1.3-0.8,2.6-0.8c0.8,0,1.5,0.1,2.1,0.3c0.6,0.2,1.2,0.4,1.5,0.7C458.8,146.1,459.6,144,459.6,144z M456.3,153.2
			c-1,0-1.8-0.3-2.4-0.8c-0.6-0.5-1-1.2-1.3-2h5.5c0.2,0.9,0.2,1.6-0.1,2.1C457.8,152.9,457.2,153.2,456.3,153.2"/>
		<path id="path74" class="st0" d="M472.5,143.6c-0.6-0.4-1.3-0.6-2.1-0.8c-0.8-0.2-1.6-0.3-2.4-0.3c-1.1,0-2,0.2-2.7,0.5
			c-0.7,0.3-1.2,0.8-1.6,1.4c-0.4,0.6-0.6,1.3-0.6,2.1c-0.1,0.8,0,1.7,0.2,2.7c0.4,2.1,1.2,3.7,2.5,4.9c1.3,1.2,2.9,1.8,4.9,1.8
			c1,0,1.8-0.1,2.3-0.2c0.6-0.2,1.1-0.3,1.5-0.6l-1.3-2.7c-0.4,0.2-0.8,0.3-1.2,0.4c-0.4,0.1-0.9,0.1-1.4,0.1c-1,0-1.9-0.3-2.5-0.9
			c-0.7-0.6-1.1-1.5-1.4-2.8c-0.1-0.5-0.1-1-0.1-1.4c0-0.4,0.2-0.8,0.4-1.2c0.2-0.3,0.5-0.6,0.9-0.8c0.4-0.2,0.9-0.3,1.4-0.3
			c0.7,0,1.2,0.1,1.6,0.2c0.4,0.1,0.8,0.3,1.2,0.5L472.5,143.6"/>
		<path id="path76" class="st0" d="M477,154.6c0.8,0.3,1.7,0.6,2.8,0.8c1.1,0.2,2.2,0.3,3.3,0.3c0.9,0,1.6-0.1,2.2-0.3
			c0.6-0.2,1-0.5,1.3-0.9c0.3-0.4,0.4-0.9,0.5-1.4c0-0.6,0-1.2-0.1-1.8c-0.2-0.8-0.3-1.6-0.6-2.4c-0.2-0.8-0.4-1.6-0.6-2.5
			c-0.1-0.6-0.2-1.2-0.2-1.8c0-0.6,0-1.1,0.1-1.7h-2.8l-0.2,1.9h-0.3c-0.5-0.6-1.2-1-1.9-1.4c-0.7-0.4-1.6-0.6-2.6-0.6
			c-0.6,0-1.2,0.1-1.6,0.3c-0.5,0.2-0.9,0.4-1.2,0.8c-0.3,0.3-0.5,0.7-0.6,1.2c-0.1,0.4-0.1,0.9,0,1.5c0.3,1.4,1,2.5,2.1,3.2
			c1.1,0.7,2.6,1.1,4.6,1.1c0.5,0,0.9,0,1.3-0.1c0.4-0.1,0.7-0.1,0.9-0.2c0.1,0.3,0.2,0.6,0.2,0.9c0.1,0.6,0.1,1.1-0.2,1.3
			c-0.3,0.3-0.8,0.4-1.6,0.4c-0.8,0-1.6-0.1-2.3-0.3c-0.8-0.2-1.5-0.4-2.1-0.7C477.4,152,477,154.6,477,154.6z M479.6,145.4
			c0.8,0,1.4,0.2,1.9,0.5c0.5,0.4,0.9,0.7,1.2,1.1l0.3,1.4c-0.1,0-0.2,0.1-0.4,0.1c-0.2,0-0.3,0.1-0.5,0.1c-0.2,0-0.4,0.1-0.6,0.1
			c-0.2,0-0.4,0-0.5,0c-0.9,0-1.6-0.2-2-0.5c-0.5-0.3-0.8-0.7-0.9-1.2c-0.1-0.6,0-1,0.2-1.3C478.7,145.5,479.1,145.4,479.6,145.4"/>
	</g>
</g>
</svg>
